<svg width="72" height="72" viewBox="0 0 72 72" fill="none" xmlns="http://www.w3.org/2000/svg">
<path d="M71.3 27.38V7.19998C71.2947 5.29205 70.5345 3.46377 69.1853 2.11465C67.8362 0.765535 66.0079 0.00527786 64.1 0H7.19998C5.29205 0.00527786 3.46377 0.765535 2.11465 2.11465C0.765535 3.46377 0.00527786 5.29205 0 7.19998V64.1C0.00527786 66.0079 0.765535 67.8362 2.11465 69.1853C3.46377 70.5345 5.29205 71.2947 7.19998 71.3H64.1C66.0079 71.2947 67.8362 70.5345 69.1853 69.1853C70.5345 67.8362 71.2947 66.0079 71.3 64.1V48.1H4.92999L71.3 27.38Z" fill="#00548B"/>
</svg>
