<svg width="100" height="31" viewBox="0 0 100 31" fill="none" xmlns="http://www.w3.org/2000/svg">
<path d="M14.9646 16.3926C14.9646 18.9933 14.3069 21.0385 12.9916 22.528C11.6762 24.0176 9.8488 24.7684 7.50935 24.7804C5.10684 24.7804 3.2599 24.0491 1.96855 22.5866C0.677206 21.1241 0.021022 19.0459 0 16.3521C0 13.7063 0.651679 11.6567 1.95504 10.2032C3.2584 8.74964 5.10985 8.02137 7.50935 8.01837C9.84279 8.01837 11.6657 8.75864 12.9781 10.2392C14.2904 11.7197 14.9526 13.7709 14.9646 16.3926ZM2.01811 16.3926C2.01811 18.5939 2.4866 20.2622 3.42358 21.3974C4.36056 22.5325 5.72098 23.1016 7.50484 23.1046C9.30673 23.1046 10.6656 22.5385 11.5816 21.4064C12.4976 20.2742 12.957 18.6044 12.96 16.3971C12.96 14.2108 12.5096 12.5591 11.6086 11.442C10.7077 10.3248 9.35627 9.76019 7.55439 9.74818C5.75251 9.74818 4.38458 10.3173 3.45061 11.4555C2.51663 12.5937 2.04063 14.2394 2.02261 16.3926H2.01811Z" fill="#435363"/>
<path d="M23.3614 24.7579C22.6139 24.7634 21.8738 24.6098 21.1901 24.3074C20.5306 24.0109 19.9616 23.5446 19.5414 22.956H19.4063C19.4931 23.6267 19.5383 24.3022 19.5414 24.9786V30.0013H17.699V12.3564H19.1991L19.4558 14.0231H19.5459C19.9632 13.4051 20.5346 12.9066 21.2037 12.5771C21.8835 12.268 22.6237 12.1141 23.3704 12.1267C24.0802 12.0884 24.789 12.2186 25.4389 12.5067C26.0887 12.7949 26.6611 13.2327 27.1093 13.7844C27.9862 14.8895 28.4247 16.4377 28.4247 18.4287C28.4247 20.4198 27.9742 21.9739 27.0733 23.0911C26.6287 23.6407 26.0611 24.0779 25.4163 24.3675C24.7714 24.657 24.0675 24.7907 23.3614 24.7579ZM23.0956 13.7033C21.8523 13.7033 20.9514 14.0472 20.3928 14.7349C19.8342 15.4226 19.5489 16.5187 19.5369 18.0233V18.4332C19.5369 20.145 19.8222 21.3688 20.3928 22.1046C20.9634 22.8403 21.8779 23.2082 23.1362 23.2082C23.6233 23.2237 24.1063 23.1143 24.5392 22.8904C24.9721 22.6664 25.3405 22.3354 25.6093 21.9289C26.2099 21.076 26.5102 19.9018 26.5102 18.4062C26.5102 16.9107 26.2099 15.7454 25.6093 14.9106C25.3228 14.5171 24.9433 14.2009 24.5046 13.9902C24.0659 13.7795 23.5818 13.6809 23.0956 13.7033Z" fill="#435363"/>
<path d="M38.8846 21.2127C38.9089 21.7205 38.8058 22.2264 38.5848 22.6843C38.3637 23.1422 38.0316 23.5376 37.6188 23.8344C36.7749 24.435 35.5902 24.7353 34.0646 24.7353C32.4489 24.7353 31.1891 24.4801 30.2852 23.9695V22.2577C30.8853 22.5589 31.5167 22.7931 32.1681 22.956C32.8006 23.1218 33.4513 23.2081 34.1051 23.2128C34.8721 23.2592 35.6378 23.1039 36.326 22.7623C36.5492 22.6306 36.7368 22.4461 36.8723 22.2251C37.0077 22.0041 37.0869 21.7532 37.1029 21.4945C37.1189 21.2357 37.0712 20.977 36.9641 20.741C36.8569 20.5049 36.6935 20.2988 36.4881 20.1405C35.7455 19.6331 34.9359 19.2313 34.0826 18.9468C33.2423 18.6621 32.4333 18.2923 31.6681 17.8431C31.2339 17.5733 30.8684 17.2063 30.6005 16.771C30.3573 16.3335 30.236 15.8389 30.2491 15.3385C30.2357 14.8761 30.3398 14.4178 30.5517 14.0065C30.7636 13.5952 31.0765 13.2445 31.4609 12.9871C32.4528 12.3619 33.6147 12.0612 34.7854 12.1267C36.1074 12.1299 37.4149 12.4027 38.6279 12.9285L37.9702 14.4286C36.9218 13.9626 35.7925 13.7055 34.6457 13.6718C33.9617 13.6288 33.2787 13.7703 32.6681 14.0817C32.4592 14.1902 32.2845 14.3547 32.1636 14.5567C32.0427 14.7588 31.9803 14.9905 31.9834 15.2259C31.9753 15.5237 32.0638 15.816 32.2357 16.0593C32.4546 16.3334 32.7295 16.5576 33.042 16.717C33.7337 17.0629 34.4469 17.3638 35.1773 17.6179C36.6218 18.1434 37.5978 18.6735 38.1053 19.2081C38.3608 19.4744 38.5612 19.7886 38.695 20.1326C38.8287 20.4766 38.8932 20.8437 38.8846 21.2127Z" fill="#435363"/>
<path d="M44.1146 18.0459V24.5371H41.4433V8.29315H46.0336C48.1358 8.29315 49.6884 8.68507 50.6915 9.46889C51.6945 10.2527 52.1976 11.4374 52.2006 13.0231C52.2006 15.0442 51.1495 16.4857 49.0473 17.3476L53.6376 24.5551H50.6149L46.7273 18.0639L44.1146 18.0459ZM44.1146 15.8476H45.948C47.1853 15.8476 48.0863 15.6178 48.6508 15.1583C48.9371 14.904 49.1611 14.5874 49.3056 14.2328C49.4501 13.8782 49.5112 13.4951 49.4842 13.1132C49.5183 12.7338 49.4531 12.352 49.2952 12.0053C49.1373 11.6586 48.8919 11.3589 48.5833 11.1356C47.7576 10.6832 46.82 10.4754 45.8805 10.5365H44.1236L44.1146 15.8476Z" fill="#00598B"/>
<path d="M62.8001 24.5371L62.2776 22.8253H62.1875C61.7165 23.4701 61.0989 23.9936 60.3856 24.3524C59.6521 24.6476 58.8648 24.7857 58.0747 24.7579C57.562 24.7887 57.0484 24.7182 56.563 24.5505C56.0776 24.3828 55.63 24.1211 55.2457 23.7803C54.8935 23.4151 54.621 22.9806 54.4458 22.5045C54.2705 22.0283 54.1962 21.5209 54.2276 21.0145C54.196 20.4559 54.3092 19.8987 54.5562 19.3967C54.8033 18.8948 55.1758 18.4651 55.6376 18.1495C56.5776 17.5038 58.0116 17.1524 59.9396 17.0954L62.0613 17.0278V16.3521C62.1108 15.7162 61.914 15.0856 61.5118 14.5907C61.2826 14.3815 61.0126 14.2218 60.7188 14.1218C60.425 14.0218 60.1137 13.9836 59.8045 14.0096C59.193 14.0088 58.5851 14.103 58.0026 14.2889C57.4333 14.4716 56.8765 14.6913 56.3358 14.9466L55.4935 13.0817C56.1862 12.7246 56.922 12.4581 57.6828 12.2888C58.421 12.1142 59.1765 12.0235 59.9351 12.0186C61.4967 12.0186 62.677 12.3594 63.4758 13.0411C64.2746 13.7228 64.6726 14.7935 64.6696 16.253V24.5326L62.8001 24.5371ZM58.9125 22.7578C59.7477 22.7987 60.5662 22.5145 61.1964 21.9649C61.4912 21.6766 61.7206 21.3283 61.869 20.9435C62.0174 20.5588 62.0815 20.1467 62.0568 19.7351V18.6675L60.4802 18.7351C59.2519 18.7801 58.351 18.9858 57.7774 19.3522C57.5016 19.5342 57.2788 19.7859 57.1316 20.0818C56.9845 20.3777 56.9182 20.7072 56.9395 21.037C56.9252 21.2712 56.9613 21.5057 57.0452 21.7248C57.1291 21.9439 57.259 22.1425 57.426 22.3073C57.8457 22.642 58.3777 22.8032 58.9125 22.7578Z" fill="#00598B"/>
<path d="M78.0531 24.5371H75.4313V16.9602C75.486 16.22 75.2995 15.482 74.8998 14.8565C74.6974 14.6163 74.4406 14.428 74.1506 14.3073C73.8607 14.1866 73.5461 14.1371 73.233 14.1628C72.8111 14.1289 72.3873 14.2009 72.0002 14.3724C71.6131 14.5439 71.2751 14.8094 71.0167 15.1448C70.5452 15.7995 70.3095 16.8896 70.3095 18.4152V24.5371H67.6968V12.2483H69.7419L70.1068 13.861H70.2419C70.5891 13.272 71.1055 12.8011 71.724 12.5096C72.3907 12.1871 73.1231 12.0236 73.8637 12.0321C75.7527 12.0321 77.005 12.6763 77.6206 13.9646H77.8008C78.1658 13.3543 78.697 12.8605 79.3324 12.5411C80.0315 12.1931 80.804 12.0185 81.5848 12.0321C83.0503 12.0321 84.1194 12.403 84.7921 13.1447C85.4648 13.8865 85.7997 15.0157 85.7967 16.5323V24.5416H83.1839V16.9602C83.2379 16.2188 83.048 15.4801 82.6434 14.8565C82.4396 14.6168 82.1819 14.4289 81.8913 14.3083C81.6008 14.1877 81.2857 14.1378 80.9721 14.1628C80.5511 14.1274 80.1278 14.1954 79.7392 14.3611C79.3505 14.5268 79.0083 14.785 78.7423 15.1133C78.2708 15.747 78.0351 16.72 78.0351 18.0323L78.0531 24.5371Z" fill="#00598B"/>
<path d="M95.0493 24.7578C94.3582 24.7889 93.6697 24.6528 93.0423 24.3611C92.415 24.0693 91.8672 23.6306 91.4456 23.0821H91.2879C91.39 24.1182 91.4426 24.7473 91.4456 24.9696V30.0013H88.8328V12.2483H90.9455C91.0056 12.4795 91.1272 13.0276 91.3104 13.8925H91.4456C91.8375 13.2854 92.3834 12.7931 93.0275 12.4655C93.6715 12.1379 94.3909 11.9868 95.1124 12.0275C95.8032 11.9924 96.4922 12.1257 97.12 12.4161C97.7478 12.7065 98.2956 13.1451 98.7162 13.6943C99.5721 14.8054 100 16.3641 100 18.3702C100 20.3763 99.5645 21.9424 98.6936 23.0686C98.2694 23.6254 97.7158 24.0703 97.0807 24.3647C96.4457 24.659 95.7484 24.794 95.0493 24.7578ZM94.4142 14.1583C93.3781 14.1583 92.6273 14.4586 92.1618 15.0592C91.6963 15.6598 91.4576 16.6344 91.4456 17.9828V18.3702C91.4456 19.8717 91.6828 20.9544 92.1573 21.6181C92.6318 22.2818 93.4066 22.6166 94.4817 22.6226C94.8973 22.6381 95.3096 22.5434 95.6768 22.3479C96.0439 22.1525 96.3527 21.8634 96.5719 21.51C97.1142 20.5511 97.3691 19.4564 97.3062 18.3567C97.3062 16.9782 97.0629 15.9361 96.5764 15.2304C96.3427 14.8821 96.0228 14.6003 95.6478 14.4124C95.2728 14.2245 94.8556 14.1369 94.4367 14.1583H94.4142Z" fill="#00598B"/>
<path d="M55.4214 8.95535H99.6802V0L55.4214 8.95535Z" fill="#00598B"/>
</svg>
